# xmcd
#
# Track frame offsets: 
#        150
#        21223
#        41548
#        53695
#        76411
#        95427
#        116168
#        152826
#        180380
#        204012
#        220836
#        251730
#        266857
#        277642
#
# Disc length: 3960 seconds
#
# Revision: 0
# Processed by: cddbd v1.5.2PL0 Copyright (c) Steve Scherf et al.
# Submitted via: ExactAudioCopy v1.0b2
#
DISCID=b60f760e
DTITLE=Beth Hart and Joe Bonnamassa - Don't Explain
DYEAR=2011
DGENRE=Blues
TTITLE0=Sinner's Prayer
TTITLE1=Chocolate Jesus
TTITLE2=You Heart Is As Black As Night
TTITLE3=For My Friends
TTITLE4=Don't Explain
TTITLE5=I'd Rather Go Blind
TTITLE6=Something's Got A Hold On Me
TTITLE7=I'll Take Care Of You
TTITLE8=Well Well
TTITLE9=Ain't No Way
TTITLE10=I'll Take Care Of You
TTITLE11=Chocolate Jesus
TTITLE12=LA Song
TTITLE13=At The Bottom
EXTD=
EXTT0=
EXTT1=
EXTT2=
EXTT3=
EXTT4=
EXTT5=
EXTT6=
EXTT7=
EXTT8=
EXTT9=
EXTT10=
EXTT11=
EXTT12=
EXTT13=
PLAYORDER=
